<svg width="94" height="88" viewBox="0 0 94 88" fill="none" xmlns="http://www.w3.org/2000/svg">
<path d="M41.5861 29.7888L62.653 50.8557" stroke="black" stroke-width="7.33173"/>
<path d="M28.9461 62.0912L30.1981 40.8065C30.2948 39.1626 31.1079 37.644 32.4224 36.6521L74.6337 4.79935C75.6085 4.06378 76.7964 3.66586 78.0176 3.66586H84.5625C87.6652 3.66586 90.1804 6.18105 90.1804 9.28368V14.2945C90.1804 15.595 89.7291 16.8553 88.9036 17.8603L53.2412 61.2754C52.0959 62.6697 50.3506 63.429 48.5497 63.3164L28.9461 62.0912Z" stroke="black" stroke-width="7.33173"/>
<path d="M37.3728 17.4286H10.9976C6.9484 17.4286 3.66586 20.7111 3.66586 24.7603V76.1062C3.66586 80.1554 6.94839 83.438 10.9976 83.438H70.7703C74.8195 83.438 78.102 80.1554 78.102 76.1062V49.731" stroke="black" stroke-width="7.33173"/>
</svg>
