<svg width="68" height="75" viewBox="0 0 68 75" fill="none" xmlns="http://www.w3.org/2000/svg">
<circle cx="33.9093" cy="15.5799" r="11.9141" stroke="black" stroke-width="7.33173"/>
<mask id="path-2-inside-1_101_13" fill="white">
<path fill-rule="evenodd" clip-rule="evenodd" d="M67.8186 71.4481C67.801 50.7125 52.6261 33.909 33.9093 33.909C15.1818 33.909 6.10352e-05 50.732 6.10352e-05 71.4842C6.10352e-05 72.4088 0.0302014 73.3257 0.0894528 74.2336H67.7292C67.7877 73.3375 67.8178 72.4327 67.8186 71.5202V71.4481Z"/>
</mask>
<path d="M67.8186 71.4481H75.1503L75.1503 71.4419L67.8186 71.4481ZM0.0894528 74.2336L-7.22672 74.7111L-6.7794 81.5653H0.0894528V74.2336ZM67.7292 74.2336V81.5653H74.5981L75.0454 74.711L67.7292 74.2336ZM67.8186 71.5202L75.1503 71.5264V71.5202H67.8186ZM75.1503 71.4419C75.13 47.3852 57.3622 26.5773 33.9093 26.5773V41.2408C47.8899 41.2408 60.4721 54.0399 60.4869 71.4544L75.1503 71.4419ZM33.9093 26.5773C10.4427 26.5773 -7.33167 47.409 -7.33167 71.4842H7.33179C7.33179 54.055 19.9209 41.2408 33.9093 41.2408V26.5773ZM-7.33167 71.4842C-7.33167 72.5682 -7.29634 73.6443 -7.22672 74.7111L7.40562 73.7561C7.35674 73.0071 7.33179 72.2495 7.33179 71.4842H-7.33167ZM0.0894528 81.5653H67.7292V66.9019H0.0894528V81.5653ZM75.0454 74.711C75.1141 73.6582 75.1494 72.5962 75.1503 71.5264L60.4869 71.514C60.4862 72.2691 60.4613 73.0168 60.413 73.7561L75.0454 74.711ZM75.1503 71.5202V71.4481H60.4869V71.5202H75.1503Z" fill="black" mask="url(#path-2-inside-1_101_13)"/>
</svg>
