<svg width="76" height="76" viewBox="0 0 76 76" fill="none" xmlns="http://www.w3.org/2000/svg">
<path d="M54.5023 50.7023C58.5715 45.6603 60.5519 39.2497 60.0355 32.7911C59.5192 26.3325 56.5454 20.318 51.7268 15.9865C46.9083 11.6551 40.612 9.33668 34.1351 9.50896C27.6582 9.68124 21.494 12.3311 16.9126 16.9126C12.3311 21.494 9.68124 27.6582 9.50896 34.1351C9.33668 40.612 11.6551 46.9083 15.9865 51.7268C20.318 56.5454 26.3325 59.5192 32.7911 60.0355C39.2497 60.5519 45.6603 58.5715 50.7023 54.5023L60.6773 64.4963C60.9263 64.7468 61.2223 64.9456 61.5484 65.0812C61.8745 65.2168 62.2241 65.2867 62.5773 65.2867C62.9305 65.2867 63.2801 65.2168 63.6062 65.0812C63.9323 64.9456 64.2283 64.7468 64.4773 64.4963C64.7278 64.2474 64.9265 63.9513 65.0622 63.6252C65.1978 63.2992 65.2676 62.9495 65.2676 62.5963C65.2676 62.2432 65.1978 61.8935 65.0622 61.5674C64.9265 61.2413 64.7278 60.9453 64.4773 60.6963L54.5023 50.7023ZM34.8183 54.8633C30.8807 54.8784 27.0271 53.7245 23.7457 51.5477C20.4644 49.371 17.9028 46.2695 16.3855 42.6358C14.8682 39.0022 14.4634 35 15.2223 31.1362C15.9813 27.2723 17.8699 23.7206 20.6489 20.9309C23.428 18.1412 26.9724 16.2391 30.8333 15.4653C34.6943 14.6915 38.698 15.081 42.3374 16.5844C45.9768 18.0878 49.0882 20.6375 51.2774 23.9105C53.4666 27.1835 54.6353 31.0326 54.6353 34.9703C54.6304 40.2316 52.5433 45.2771 48.8302 49.0045C45.117 52.7319 40.0795 54.8382 34.8183 54.8633Z" fill="#4D4D4F"/>
</svg>
